<?xml version="1.0" encoding="iso-8859-1"?>
<svg fill="#000000" height="800px" width="800px" version="1.1" id="Layer_1" xmlns="http://www.w3.org/2000/svg" xmlns:xlink="http://www.w3.org/1999/xlink" 
	 viewBox="0 0 512 512" xml:space="preserve">
<g>
	<g>
		<path d="M508.505,193.579L260.948,14.428c-0.024-0.017-0.05-0.028-0.073-0.045c-0.323-0.23-0.663-0.436-1.018-0.619
			c-0.057-0.029-0.115-0.055-0.172-0.083c-0.349-0.17-0.708-0.321-1.082-0.443c-0.016-0.006-0.032-0.012-0.047-0.017
			c-0.369-0.117-0.751-0.203-1.141-0.269c-0.086-0.015-0.171-0.027-0.258-0.039c-0.377-0.052-0.759-0.088-1.15-0.089
			c-0.013,0-0.027,0.001-0.041,0.001c-0.386,0.001-0.762,0.036-1.135,0.088c-0.088,0.012-0.174,0.025-0.261,0.041
			c-0.387,0.066-0.768,0.152-1.135,0.268c-0.021,0.007-0.041,0.016-0.062,0.023c-0.369,0.12-0.724,0.269-1.068,0.438
			c-0.057,0.028-0.116,0.054-0.173,0.083c-0.355,0.184-0.695,0.391-1.018,0.62c-0.024,0.017-0.05,0.027-0.072,0.044L102.947,121.744
			c-3.776,2.737-4.621,8.017-1.884,11.793c2.737,3.778,8.018,4.62,11.793,1.883l134.696-97.606v64.636
			c-15.883,3.824-27.724,18.142-27.724,35.182c0,4.042,0.676,7.927,1.904,11.559l-11.695,8.475
			c-3.776,2.737-4.621,8.017-1.884,11.793c2.737,3.776,8.018,4.62,11.793,1.883l10.77-7.804c4.666,4.585,10.466,7.784,16.836,9.296
			v74.362l-78.507-18.127c0.013-0.408,0.027-0.815,0.027-1.226c0-0.001,0-0.002,0-0.003c0-0.001,0-0.002,0-0.003
			c0-0.686-0.024-1.366-0.062-2.042c-0.011-0.211-0.033-0.419-0.048-0.628c-0.035-0.472-0.074-0.942-0.127-1.409
			c-0.027-0.241-0.06-0.48-0.091-0.719c-0.059-0.437-0.123-0.87-0.197-1.303c-0.042-0.247-0.086-0.492-0.132-0.737
			c-0.082-0.428-0.174-0.851-0.271-1.272c-0.055-0.239-0.106-0.479-0.166-0.717c-0.115-0.458-0.244-0.911-0.377-1.362
			c-0.101-0.346-0.208-0.69-0.32-1.032c-0.141-0.429-0.283-0.858-0.438-1.279c-0.13-0.351-0.273-0.696-0.412-1.043
			c-0.098-0.241-0.194-0.482-0.296-0.721c-0.164-0.382-0.338-0.76-0.515-1.137c-0.084-0.179-0.17-0.357-0.258-0.535
			c-0.122-0.247-0.231-0.498-0.358-0.742l33.107-23.992c3.778-2.737,4.621-8.017,1.884-11.793c-2.737-3.776-8.018-4.62-11.793-1.883
			l-34.345,24.888c-5.922-4.229-13.162-6.729-20.979-6.729c-14.705,0-27.381,8.821-33.037,21.445l-71.417-16.488l62.512-45.298
			c3.776-2.737,4.621-8.017,1.884-11.793s-8.018-4.62-11.793-1.883L3.485,193.819c-0.015,0.01-0.026,0.024-0.041,0.035
			c-0.33,0.242-0.641,0.509-0.933,0.798c-0.042,0.041-0.081,0.083-0.122,0.125c-0.56,0.575-1.039,1.233-1.42,1.961
			c-0.033,0.062-0.065,0.123-0.096,0.185c-0.171,0.347-0.323,0.706-0.447,1.081c-0.018,0.055-0.03,0.113-0.047,0.168
			c-0.06,0.194-0.12,0.385-0.167,0.586c-0.03,0.133-0.047,0.266-0.071,0.4c-0.016,0.089-0.034,0.177-0.047,0.267
			c-0.057,0.385-0.09,0.769-0.095,1.15c0,0.057,0.003,0.115,0.005,0.173c0.003,0.375,0.032,0.745,0.084,1.111
			c0.007,0.047,0.01,0.093,0.017,0.14c0.064,0.401,0.161,0.792,0.281,1.174c0.01,0.034,0.014,0.069,0.025,0.102l94.559,290.074
			c0.01,0.032,0.027,0.06,0.038,0.091c0.124,0.365,0.272,0.722,0.446,1.069c0.02,0.041,0.038,0.083,0.06,0.124
			c0.182,0.35,0.393,0.687,0.625,1.011c0.041,0.056,0.082,0.112,0.124,0.167c0.466,0.618,1.023,1.178,1.669,1.663
			c0.072,0.054,0.144,0.108,0.218,0.16c0.072,0.051,0.14,0.108,0.214,0.156c0.141,0.092,0.291,0.159,0.433,0.241
			c0.167,0.096,0.33,0.196,0.503,0.28c0.235,0.115,0.474,0.207,0.715,0.298c0.152,0.057,0.301,0.123,0.456,0.171
			c0.292,0.092,0.587,0.156,0.884,0.215c0.119,0.024,0.233,0.059,0.354,0.077c0.427,0.065,0.856,0.105,1.284,0.105
			c0.006,0,0.012-0.001,0.018-0.001h305.974c0.006,0,0.012,0.001,0.018,0.001c0.428,0,0.857-0.038,1.284-0.105
			c0.123-0.019,0.239-0.054,0.359-0.079c0.294-0.059,0.587-0.123,0.875-0.213c0.16-0.051,0.312-0.116,0.467-0.176
			c0.236-0.09,0.472-0.18,0.701-0.293c0.178-0.087,0.346-0.188,0.516-0.287c0.141-0.081,0.286-0.145,0.423-0.235
			c0.073-0.048,0.138-0.104,0.211-0.153c0.078-0.054,0.153-0.11,0.229-0.168c0.642-0.483,1.197-1.042,1.662-1.657
			c0.043-0.056,0.086-0.113,0.126-0.17c0.232-0.324,0.443-0.661,0.625-1.011c0.02-0.039,0.038-0.081,0.057-0.12
			c0.176-0.351,0.327-0.712,0.45-1.082c0.009-0.028,0.025-0.053,0.034-0.081l94.158-289.084c0.56-1.176,0.853-2.483,0.816-3.832
			C511.999,197.77,510.745,195.199,508.505,193.579z M264.442,37.804L483.804,196.55l-71.612,16.533
			c-6.198-11.069-18.035-18.571-31.598-18.571c-7.235,0-13.975,2.142-19.635,5.813l-70.651-51.129
			c1.228-3.633,1.905-7.52,1.905-11.563c0-17.057-11.864-31.387-27.771-35.194V37.804z M339.298,336.756
			c-0.062-0.01-0.125-0.013-0.187-0.024c-0.831-0.134-1.672-0.236-2.521-0.312c-0.194-0.017-0.388-0.03-0.583-0.044
			c-0.882-0.064-1.768-0.108-2.665-0.108c-4.917,0-9.607,0.99-13.884,2.773l-49.744-75.728l77.772-17.955
			c3.229,7.316,8.822,13.417,15.967,17.24L339.298,336.756z M352.646,372.461c0,10.645-8.66,19.304-19.304,19.304
			c-9.917-0.001-18.104-7.521-19.177-17.157c-0.007-0.062-0.021-0.122-0.027-0.184c-0.065-0.646-0.099-1.302-0.099-1.964
			c0-10.645,8.66-19.304,19.304-19.304c0.674,0,1.344,0.037,2.006,0.106c0.249,0.026,0.491,0.078,0.737,0.113
			c0.41,0.059,0.821,0.111,1.225,0.196c0.263,0.055,0.518,0.134,0.777,0.2c0.383,0.098,0.766,0.19,1.143,0.312
			c0.25,0.08,0.491,0.18,0.736,0.27c0.375,0.137,0.749,0.276,1.117,0.437C347.882,357.781,352.646,364.57,352.646,372.461z
			 M264.442,247.196v-74.352c6.389-1.506,12.204-4.709,16.881-9.304l67.877,49.123c-1.315,2.278-2.355,4.695-3.139,7.201
			c-0.028,0.089-0.054,0.179-0.081,0.268c-0.427,1.404-0.769,2.836-1.022,4.293c-0.063,0.361-0.126,0.724-0.179,1.089
			c-0.044,0.308-0.082,0.618-0.118,0.928c-0.053,0.448-0.096,0.898-0.132,1.352c-0.02,0.251-0.043,0.502-0.057,0.754
			c-0.003,0.057-0.01,0.115-0.013,0.172L264.442,247.196z M362.814,238.224c-0.007-0.016-0.012-0.033-0.019-0.048
			c-0.216-0.513-0.405-1.04-0.578-1.575c-0.042-0.13-0.08-0.26-0.118-0.391c-0.128-0.431-0.24-0.869-0.339-1.313
			c-0.038-0.176-0.079-0.351-0.113-0.528c-0.082-0.427-0.145-0.861-0.198-1.297c-0.021-0.177-0.051-0.35-0.068-0.528
			c-0.057-0.606-0.094-1.217-0.094-1.838c0-0.664,0.034-1.321,0.1-1.968c0.002-0.027,0.009-0.053,0.012-0.081
			c0.46-4.347,2.379-8.259,5.245-11.261c0.114-0.119,0.217-0.245,0.334-0.363c3.493-3.478,8.306-5.632,13.613-5.632
			c10.644,0,19.304,8.66,19.304,19.304c0.001,10.642-8.66,19.302-19.303,19.302c-1.842,0-3.619-0.275-5.308-0.759
			c-0.206-0.059-0.413-0.115-0.617-0.18c-0.498-0.161-0.987-0.339-1.466-0.537c-0.046-0.019-0.094-0.035-0.14-0.054
			C368.462,246.521,364.769,242.826,362.814,238.224z M236.717,137.633c0.001-10.645,8.66-19.304,19.303-19.304
			c10.643,0,19.304,8.66,19.304,19.304c0,9.929-7.537,18.123-17.187,19.182c-0.108,0.011-0.217,0.021-0.327,0.032
			c-0.59,0.054-1.186,0.091-1.79,0.091c-0.604,0-1.199-0.036-1.789-0.091c-0.109-0.01-0.22-0.02-0.329-0.032
			C244.251,155.756,236.717,147.562,236.717,137.633z M255.997,273.193l49.805,75.821c-5.39,6.321-8.654,14.507-8.654,23.445
			c0.001,0.685,0.024,1.364,0.062,2.038c0.013,0.245,0.037,0.49,0.056,0.734c0.033,0.424,0.068,0.848,0.114,1.268
			c0.013,0.117,0.018,0.235,0.032,0.352l-110.583,24.387c-1.642-4.413-4.12-8.382-7.217-11.758L255.997,273.193z M153.197,257.776
			c0.418-0.284,0.829-0.576,1.233-0.877c0.038-0.028,0.077-0.055,0.115-0.083c0.427-0.32,0.844-0.65,1.255-0.987
			c0.142-0.116,0.278-0.238,0.419-0.356c0.276-0.233,0.549-0.467,0.819-0.709c0.16-0.143,0.315-0.289,0.472-0.436
			c0.243-0.226,0.484-0.455,0.721-0.687c0.158-0.155,0.314-0.312,0.47-0.471c0.231-0.235,0.458-0.474,0.683-0.716
			c0.149-0.16,0.297-0.32,0.443-0.482c0.231-0.258,0.456-0.519,0.679-0.784c0.128-0.152,0.259-0.302,0.385-0.456
			c0.266-0.325,0.525-0.656,0.779-0.991c0.075-0.099,0.154-0.195,0.229-0.294c0.323-0.433,0.637-0.875,0.941-1.323
			c0.089-0.132,0.173-0.267,0.261-0.4c0.213-0.322,0.423-0.646,0.626-0.976c0.108-0.177,0.213-0.356,0.318-0.535
			c0.167-0.281,0.332-0.564,0.491-0.85l77.745,17.95l-76.692,116.753c-0.619-0.229-1.246-0.438-1.881-0.634
			c-0.029-0.009-0.059-0.018-0.088-0.027c-0.859-0.263-1.732-0.494-2.617-0.694c-0.309-0.071-0.616-0.144-0.927-0.207
			c-0.358-0.071-0.717-0.133-1.079-0.194c-0.522-0.089-1.048-0.164-1.579-0.231c-0.23-0.028-0.456-0.064-0.687-0.088
			c-0.78-0.082-1.568-0.133-2.362-0.164c-0.084-0.003-0.165-0.015-0.25-0.017l-13.306-114.653c0.222-0.049,0.44-0.109,0.661-0.163
			c0.212-0.052,0.421-0.1,0.629-0.155c0.375-0.099,0.745-0.207,1.116-0.318c0.164-0.049,0.33-0.093,0.492-0.144
			c0.527-0.166,1.048-0.341,1.565-0.53c0.11-0.041,0.217-0.086,0.327-0.127c0.409-0.154,0.814-0.312,1.215-0.48
			c0.186-0.078,0.368-0.161,0.553-0.242c0.321-0.141,0.641-0.284,0.957-0.433c0.199-0.095,0.396-0.193,0.594-0.292
			c0.298-0.149,0.594-0.299,0.887-0.455c0.197-0.105,0.394-0.212,0.589-0.32c0.293-0.162,0.581-0.33,0.868-0.5
			c0.186-0.11,0.372-0.22,0.556-0.332c0.305-0.188,0.605-0.383,0.903-0.58C152.881,257.983,153.041,257.881,153.197,257.776z
			 M172.229,413.984c0,10.645-8.66,19.304-19.304,19.304c-10.642,0-19.303-8.66-19.303-19.304c0-9.202,6.479-16.909,15.11-18.831
			c0.562-0.125,1.127-0.217,1.693-0.292c0.13-0.017,0.254-0.045,0.385-0.059c0.706-0.079,1.412-0.122,2.115-0.122
			c0.652,0,1.297,0.035,1.932,0.098c0.113,0.011,0.221,0.034,0.332,0.047c0.534,0.063,1.064,0.136,1.584,0.242
			c0.065,0.013,0.128,0.033,0.194,0.046c7.359,1.575,13.169,7.356,14.795,14.697c0.025,0.114,0.059,0.224,0.082,0.339
			c0.081,0.401,0.132,0.813,0.187,1.222c0.032,0.234,0.078,0.463,0.101,0.7C172.195,412.702,172.229,413.339,172.229,413.984z
			 M132.879,208.537c5.888,0,11.159,2.657,14.703,6.825c0.114,0.133,0.225,0.267,0.334,0.402c0.274,0.34,0.536,0.691,0.786,1.05
			c0.101,0.145,0.203,0.289,0.299,0.437c0.235,0.357,0.456,0.725,0.668,1.098c0.095,0.167,0.189,0.332,0.278,0.501
			c0.19,0.36,0.365,0.731,0.533,1.105c0.087,0.195,0.178,0.387,0.258,0.584c0.146,0.358,0.275,0.724,0.401,1.092
			c0.075,0.222,0.155,0.441,0.223,0.665c0.108,0.36,0.196,0.73,0.284,1.099c0.056,0.237,0.119,0.47,0.167,0.709
			c0.078,0.395,0.131,0.798,0.184,1.201c0.028,0.215,0.069,0.429,0.09,0.645c0.061,0.622,0.096,1.25,0.096,1.886
			c0,8.648-5.718,15.987-13.57,18.435c-1.813,0.565-3.738,0.869-5.734,0.869c-10.644,0-19.303-8.66-19.303-19.304
			C113.577,217.197,122.235,208.537,132.879,208.537z M21.099,212.246l75.636,17.462c0.816,15.988,12.058,29.269,27.043,33.165
			l13.738,118.371c-12.271,5.799-20.783,18.291-20.783,32.739c0,9.72,3.859,18.55,10.115,25.059l-21.264,32.372L21.099,212.246z
			 M118.649,482.287l22.411-34.118c3.72,1.295,7.71,2.008,11.865,2.008c18.571,0,33.912-14.062,35.955-32.095l114.555-25.263
			c6.523,9.551,17.493,15.834,29.906,15.834c3.685,0,7.242-0.557,10.595-1.585l49.41,75.22H118.649z M406.408,471.409
			l-47.921-72.954c6.805-6.584,11.048-15.801,11.048-25.996c0-11.889-5.763-22.455-14.641-29.056l24.926-76.526
			c0.258,0.006,0.515,0.02,0.775,0.02c19.957,0,36.193-16.236,36.193-36.192c0-0.449-0.018-0.895-0.034-1.341l74.063-17.1
			L406.408,471.409z"/>
	</g>
</g>
</svg>